Coordinates
version=1
nRows=60
nColumns=12
inDegrees=yes

Units are S.I. units (second, meters, Newtons, ...)
Angles are in degrees

endheader
time	SC_y	SC_z	SC_x	AC_y	AC_z	AC_x	GH_y	GH_z	GH_yy	EL_x	PS_y
       0.0              -38.01          27.67          34.42          32.03          2.104         -17.64         -131.8          58.52         -46.82          118.8          74.03
   0.02401              -38.01          27.67          34.42          32.03          2.101         -17.64         -131.8          58.51         -46.82          118.8          74.04
   0.04802              -38.02          27.67          34.42          32.03          2.098         -17.63         -131.8           58.5         -46.81          118.8          74.04
   0.07203              -38.02          27.67          34.42          32.04          2.095         -17.63         -131.8          58.49         -46.81          118.8          74.05
   0.09605              -38.02          27.66          34.42          32.04          2.092         -17.62         -131.8          58.48         -46.81          118.8          74.06
    0.1201              -38.03          27.66          34.42          32.04          2.088         -17.62         -131.8          58.47          -46.8          118.7          74.07
    0.1441              -38.03          27.66          34.41          32.04          2.084         -17.61         -131.8          58.46          -46.8          118.7          74.08
    0.1681              -38.03          27.66          34.41          32.04           2.08         -17.61         -131.8          58.45         -46.79          118.7          74.09
    0.1921              -38.04          27.66          34.41          32.04          2.075          -17.6         -131.8          58.43         -46.79          118.7           74.1
    0.2161              -38.04          27.65          34.41          32.04          2.071          -17.6         -131.8          58.42         -46.79          118.7          74.11
    0.2401              -38.04          27.65          34.41          32.04          2.065         -17.59         -131.7           58.4         -46.78          118.6          74.12
    0.2641              -38.05          27.65           34.4          32.04           2.06         -17.58         -131.7          58.39         -46.78          118.6          74.14
    0.2881              -38.05          27.64           34.4          32.05          2.054         -17.57         -131.7          58.37         -46.77          118.6          74.15
    0.3121              -38.06          27.64           34.4          32.05          2.047         -17.56         -131.7          58.35         -46.76          118.5          74.17
    0.3362              -38.06          27.64           34.4          32.05           2.04         -17.56         -131.7          58.33         -46.76          118.5          74.19
    0.3602              -38.07          27.63          34.39          32.05          2.033         -17.55         -131.7          58.31         -46.75          118.4           74.2
    0.3842              -38.08          27.63          34.39          32.05          2.024         -17.53         -131.7          58.28         -46.74          118.4          74.22
    0.4082              -38.08          27.62          34.38          32.06          2.015         -17.52         -131.7          58.26         -46.73          118.3          74.25
    0.4322              -38.09          27.62          34.38          32.06          2.006         -17.51         -131.7          58.23         -46.72          118.3          74.27
    0.4562               -38.1          27.61          34.38          32.06          1.995          -17.5         -131.7           58.2         -46.71          118.2           74.3
    0.4802              -38.11          27.61          34.37          32.07          1.983         -17.48         -131.6          58.16          -46.7          118.2          74.33
    0.5042              -38.12           27.6          34.36          32.07           1.97         -17.46         -131.6          58.12         -46.69          118.1          74.36
    0.5283              -38.13          27.59          34.36          32.07          1.956         -17.44         -131.6          58.08         -46.67          118.0          74.39
    0.5523              -38.15          27.58          34.35          32.08           1.94         -17.42         -131.6          58.03         -46.66          117.9          74.43
    0.5763              -38.16          27.57          34.34          32.08          1.922          -17.4         -131.6          57.98         -46.64          117.8          74.47
    0.6003              -38.18          27.56          34.34          32.09          1.902         -17.37         -131.5          57.92         -46.62          117.7          74.52
    0.6243               -38.2          27.55          34.33          32.09           1.88         -17.35         -131.5          57.86          -46.6          117.6          74.58
    0.6483              -38.22          27.54          34.32           32.1          1.855         -17.31         -131.5          57.78         -46.58          117.5          74.64
    0.6723              -38.24          27.52           34.3          32.11          1.827         -17.28         -131.4           57.7         -46.55          117.3           74.7
    0.6963              -38.27          27.51          34.29          32.12          1.795         -17.23         -131.4          57.61         -46.52          117.1          74.78
    0.7203              -38.29          27.49          34.27          32.13          1.758         -17.19         -131.4           57.5         -46.48          116.9          74.87
    0.7444              -38.33          27.46          34.26          32.14          1.717         -17.13         -131.3          57.38         -46.44          116.7          74.97
    0.7684              -38.37          27.44          34.23          32.15          1.668         -17.07         -131.2          57.23         -46.39          116.4          75.09
    0.7924              -38.41          27.41          34.21          32.17          1.612         -16.99         -131.2          57.07         -46.34          116.1          75.23
    0.8164              -38.47          27.37          34.18          32.19          1.546         -16.91         -131.1          56.87         -46.28          115.7          75.39
    0.8404              -38.53          27.33          34.15          32.21          1.469         -16.81         -131.0          56.65          -46.2          115.3          75.58
    0.8644              -38.61          27.28          34.11          32.23          1.377         -16.69         -130.9          56.38         -46.11          114.8           75.8
    0.8884               -38.7          27.22          34.06          32.27          1.266         -16.54         -130.7          56.05          -46.0          114.2          76.07
    0.9124              -38.81          27.15           34.0           32.3          1.133         -16.37         -130.6          55.66         -45.87          113.5          76.39
    0.9364              -38.94          27.06          33.93          32.35         0.9697         -16.15         -130.4          55.18         -45.71          112.6          76.79
    0.9605               -39.1          26.96          33.85           32.4         0.7684         -15.89         -130.1          54.58         -45.52          111.4          77.28
    0.9845              -39.31          26.82          33.74          32.47         0.5174         -15.56         -129.8          53.84         -45.27          110.0          77.89
     1.008              -39.57          26.65           33.6          32.56         0.2011         -15.15         -129.4          52.91         -44.97          108.3          78.66
     1.032               -39.9          26.44          33.43          32.67        -0.2009         -14.62         -128.9          51.73         -44.57          106.1          79.63
     1.057              -40.32          26.16           33.2          32.82        -0.7155         -13.95         -128.2          50.21         -44.07          103.2          80.89
     1.081              -40.86          25.81          32.92           33.0         -1.376         -13.08         -127.4          48.27         -43.43          99.56          82.49
     1.105              -41.55          25.36          32.55          33.23         -2.219         -11.98         -126.3          45.78         -42.61          94.89          84.54
     1.129              -42.42          24.79          32.09          33.53          -3.28         -10.59         -125.0          42.66         -41.58          89.01          87.12
     1.153              -43.47           24.1          31.54          33.89         -4.572         -8.893         -123.4          38.85         -40.32          81.85          90.26
     1.177               -44.7           23.3          30.89           34.3         -6.071         -6.931         -121.5          34.44         -38.86          73.55           93.9
     1.201              -46.03          22.43          30.19          34.75         -7.693         -4.806         -119.5          29.66         -37.28          64.56          97.85
     1.225              -47.35          21.56          29.48           35.2         -9.315          -2.68         -117.4          24.88          -35.7          55.58          101.8
     1.249              -48.58          20.76          28.84          35.62         -10.81        -0.7179         -115.5          20.47         -34.24          47.28          105.4
     1.273              -49.64          20.07          28.28          35.98         -12.11         0.9752         -113.9          16.67         -32.98          40.12          108.6
     1.297               -50.5           19.5          27.82          36.27         -13.17          2.365         -112.6          13.54         -31.95          34.24          111.2
     1.321              -51.19          19.05          27.45          36.51         -14.01           3.47         -111.5          11.06         -31.13          29.57          113.2
     1.345              -51.73          18.69          27.17          36.69         -14.67          4.335         -110.7          9.113         -30.48          25.91          114.8
     1.369              -52.15          18.42          26.95          36.83         -15.18          5.009         -110.0          7.597         -29.98          23.06          116.1
     1.393              -52.48           18.2          26.77          36.94         -15.59          5.535         -109.5          6.413         -29.59          20.83          117.0
     1.417              -52.74          18.04          26.63          37.03          -15.9           5.95         -109.1          5.481         -29.28          19.08          117.8
